{
    "asset" : {
        "generator" : "Khronos glTF Blender I/O v3.2.40",
        "version" : "2.0"
    },
    "scene" : 0,
    "scenes" : [
        {
            "name" : "Scene",
            "nodes" : [
                0
            ]
        }
    ],
    "nodes" : [
        {
            "mesh" : 0,
            "name" : "Plane"
        }
    ],
    "materials" : [
        {
            "doubleSided" : true,
            "name" : "Material",
            "pbrMetallicRoughness" : {
                "baseColorFactor" : [
                    1,
                    0.1042681634426117,
                    0.10025106370449066,
                    1
                ],
                "metallicFactor" : 0
            }
        }
    ],
    "meshes" : [
        {
            "name" : "Plane",
            "primitives" : [
                {
                    "attributes" : {
                        "POSITION" : 0,
                        "NORMAL" : 1
                    },
                    "indices" : 2,
                    "material" : 0
                }
            ]
        }
    ],
    "accessors" : [
        {
            "bufferView" : 0,
            "componentType" : 5126,
            "count" : 352,
            "max" : [
                0.6841142177581787,
                -0.00019399262964725494,
                0.6841142177581787
            ],
            "min" : [
                -0.6841142177581787,
                -0.05978171154856682,
                -0.6841142177581787
            ],
            "type" : "VEC3"
        },
        {
            "bufferView" : 1,
            "componentType" : 5126,
            "count" : 352,
            "type" : "VEC3"
        },
        {
            "bufferView" : 2,
            "componentType" : 5123,
            "count" : 1584,
            "type" : "SCALAR"
        }
    ],
    "bufferViews" : [
        {
            "buffer" : 0,
            "byteLength" : 4224,
            "byteOffset" : 0
        },
        {
            "buffer" : 0,
            "byteLength" : 4224,
            "byteOffset" : 4224
        },
        {
            "buffer" : 0,
            "byteLength" : 3168,
            "byteOffset" : 8448
        }
    ],
    "buffers" : [
        {
            "byteLength" : 11616,
            "uri" : "shayan_rim.bin"
        }
    ]
}
