{
    "asset" : {
        "generator" : "Khronos glTF Blender I/O v3.2.37",
        "version" : "2.0"
    },
    "scene" : 0,
    "scenes" : [
        {
            "name" : "Scene",
            "nodes" : [
                0
            ]
        }
    ],
    "nodes" : [
        {
            "mesh" : 0,
            "name" : "Suzanne"
        }
    ],
    "materials" : [
        {
            "doubleSided" : true,
            "name" : "Material",
            "pbrMetallicRoughness" : {
                "baseColorFactor" : [
                    0.13584215939044952,
                    0.33895957469940186,
                    0.4769895374774933,
                    1
                ],
                "metallicFactor" : 0,
                "roughnessFactor" : 0
            }
        }
    ],
    "meshes" : [
        {
            "name" : "Suzanne",
            "primitives" : [
                {
                    "attributes" : {
                        "POSITION" : 0,
                        "NORMAL" : 1,
                        "TEXCOORD_0" : 2
                    },
                    "indices" : 3,
                    "material" : 0
                }
            ]
        }
    ],
    "accessors" : [
        {
            "bufferView" : 0,
            "componentType" : 5126,
            "count" : 2111,
            "max" : [
                1.325934886932373,
                0.9392362236976624,
                0.8223199844360352
            ],
            "min" : [
                -1.325934886932373,
                -0.9704862236976624,
                -0.7782661318778992
            ],
            "type" : "VEC3"
        },
        {
            "bufferView" : 1,
            "componentType" : 5126,
            "count" : 2111,
            "type" : "VEC3"
        },
        {
            "bufferView" : 2,
            "componentType" : 5126,
            "count" : 2111,
            "type" : "VEC2"
        },
        {
            "bufferView" : 3,
            "componentType" : 5123,
            "count" : 11808,
            "type" : "SCALAR"
        }
    ],
    "bufferViews" : [
        {
            "buffer" : 0,
            "byteLength" : 25332,
            "byteOffset" : 0
        },
        {
            "buffer" : 0,
            "byteLength" : 25332,
            "byteOffset" : 25332
        },
        {
            "buffer" : 0,
            "byteLength" : 16888,
            "byteOffset" : 50664
        },
        {
            "buffer" : 0,
            "byteLength" : 23616,
            "byteOffset" : 67552
        }
    ],
    "buffers" : [
        {
            "byteLength" : 91168,
            "uri" : "data:application/octet-stream;base64,"
        }
    ]
}
